<svg width="210" height="210" viewBox="0 0 210 210" fill="none" xmlns="http://www.w3.org/2000/svg">
<g clip-path="url(#clip0_11_47)">
<path fill-rule="evenodd" clip-rule="evenodd" d="M64.0826 1.13802C69.6055 1.13802 74.0826 5.61517 74.0826 11.138V49.9453C74.0826 52.7067 76.3212 54.9453 79.0826 54.9453L190.496 54.9453C196.018 54.9453 200.496 59.4225 200.496 64.9453C200.496 70.4682 196.018 74.9453 190.496 74.9453L79.0826 74.9453C76.3212 74.9453 74.0826 77.1839 74.0826 79.9453V190.496C74.0826 196.019 69.6055 200.496 64.0826 200.496C58.5598 200.496 54.0826 196.019 54.0826 190.496V79.9453C54.0826 77.1839 51.8441 74.9453 49.0826 74.9453L9.90564 74.9453C4.38279 74.9453 -0.0943604 70.4682 -0.0943604 64.9453C-0.0943604 59.4225 4.38279 54.9453 9.90564 54.9453L49.0826 54.9453C51.8441 54.9453 54.0826 52.7067 54.0826 49.9453V11.138C54.0826 5.61517 58.5598 1.13802 64.0826 1.13802Z" fill="#4A4A4A"/>
<circle cx="146" cy="146" r="56.5" stroke="url(#paint0_linear_11_47)" stroke-width="15"/>
<path fill-rule="evenodd" clip-rule="evenodd" d="M63.6566 84.8698C65.6092 82.9172 65.6092 79.7513 63.6566 77.7987L17.0762 31.2184C15.1236 29.2658 15.1236 26.0999 17.0762 24.1473L24.1473 17.0762C26.0999 15.1236 29.2657 15.1236 31.2184 17.0762L77.7987 63.6566C79.7513 65.6092 82.9171 65.6092 84.8698 63.6566L131.45 17.0762C133.403 15.1236 136.569 15.1236 138.521 17.0762L145.592 24.1473C147.545 26.0999 147.545 29.2658 145.592 31.2184L99.0119 77.7987C97.0593 79.7513 97.0593 82.9172 99.0119 84.8698L145.592 131.45C147.545 133.403 147.545 136.569 145.592 138.521L138.521 145.592C136.569 147.545 133.403 147.545 131.45 145.592L84.8698 99.0119C82.9171 97.0593 79.7513 97.0593 77.7987 99.0119L31.2184 145.592C29.2657 147.545 26.0999 147.545 24.1473 145.592L17.0762 138.521C15.1236 136.569 15.1236 133.403 17.0762 131.45L63.6566 84.8698Z" fill="url(#paint1_linear_11_47)"/>
</g>
<defs>
<linearGradient id="paint0_linear_11_47" x1="146" y1="82" x2="146" y2="210" gradientUnits="userSpaceOnUse">
<stop offset="0.495192" stop-color="#A855F7"/>
<stop offset="1" stop-color="#634480"/>
</linearGradient>
<linearGradient id="paint1_linear_11_47" x1="81" y1="16" x2="81" y2="147" gradientUnits="userSpaceOnUse">
<stop offset="0.496753" stop-color="#10B981"/>
<stop offset="1" stop-color="#006342"/>
</linearGradient>
<clipPath id="clip0_11_47">
<rect width="210" height="210" fill="white"/>
</clipPath>
</defs>
</svg>
