<svg width="210" height="210" viewBox="0 0 210 210" fill="none" xmlns="http://www.w3.org/2000/svg">
<path fill-rule="evenodd" clip-rule="evenodd" d="M64.0826 3.63802C68.2248 3.63802 71.5826 6.99588 71.5826 11.138V52.4453C71.5826 55.2067 73.8212 57.4453 76.5826 57.4453L190.496 57.4453C194.638 57.4453 197.996 60.8032 197.996 64.9453C197.996 69.0875 194.638 72.4453 190.496 72.4453L76.5826 72.4453C73.8212 72.4453 71.5826 74.6839 71.5826 77.4453V190.496C71.5826 194.638 68.2248 197.996 64.0826 197.996C59.9405 197.996 56.5826 194.638 56.5826 190.496V77.4453C56.5826 74.6839 54.3441 72.4453 51.5826 72.4453L9.90564 72.4453C5.7635 72.4453 2.40564 69.0875 2.40564 64.9453C2.40564 60.8032 5.7635 57.4453 9.90564 57.4453L51.5826 57.4453C54.3441 57.4453 56.5826 55.2067 56.5826 52.4453V11.138C56.5826 6.99588 59.9405 3.63802 64.0826 3.63802Z" fill="#484848"/>
<circle cx="146" cy="146" r="56.5" stroke="url(#paint0_radial_11_47)" stroke-width="15"/>
<path fill-rule="evenodd" clip-rule="evenodd" d="M63.6566 84.8698C65.6092 82.9172 65.6092 79.7513 63.6566 77.7987L17.0762 31.2184C15.1236 29.2658 15.1236 26.0999 17.0762 24.1473L24.1473 17.0762C26.0999 15.1236 29.2657 15.1236 31.2184 17.0762L77.7987 63.6566C79.7513 65.6092 82.9171 65.6092 84.8698 63.6566L131.45 17.0762C133.403 15.1236 136.569 15.1236 138.521 17.0762L145.592 24.1473C147.545 26.0999 147.545 29.2658 145.592 31.2184L99.0119 77.7987C97.0593 79.7513 97.0593 82.9172 99.0119 84.8698L145.592 131.45C147.545 133.403 147.545 136.569 145.592 138.521L138.521 145.592C136.569 147.545 133.403 147.545 131.45 145.592L84.8698 99.0119C82.9171 97.0593 79.7513 97.0593 77.7987 99.0119L31.2184 145.592C29.2657 147.545 26.0999 147.545 24.1473 145.592L17.0762 138.521C15.1236 136.569 15.1236 133.403 17.0762 131.45L63.6566 84.8698Z" fill="#10B981"/>
<defs>
<radialGradient id="paint0_radial_11_47" cx="0" cy="0" r="1" gradientUnits="userSpaceOnUse" gradientTransform="translate(103.5 102) rotate(45.1632) scale(124.098 103.363)">
<stop stop-color="#261338"/>
<stop offset="0.5" stop-color="#634480"/>
<stop offset="1" stop-color="#A855F7"/>
</radialGradient>
</defs>
</svg>
